<svg width="31" height="34" viewBox="0 0 31 34" fill="none" xmlns="http://www.w3.org/2000/svg">
<g clip-path="url(#clip0_145_51)">
<path d="M15.5001 1.13333L15.7839 0.0436062C15.5984 -0.0145354 15.4017 -0.0145354 15.2162 0.0436062L15.5001 1.13333ZM1.03339 5.66667L0.749509 4.57694C0.264748 4.72886 -0.0492995 5.24226 0.00637555 5.79183L1.03339 5.66667ZM3.10006 26.0667L2.07305 26.1918C2.11175 26.5739 2.32441 26.9085 2.63793 27.0803L3.10006 26.0667ZM15.5001 32.8667L15.0379 33.8803C15.3289 34.0399 15.6713 34.0399 15.9622 33.8803L15.5001 32.8667ZM27.9001 26.0667L28.3622 27.0803C28.6757 26.9085 28.8883 26.5739 28.927 26.1918L27.9001 26.0667ZM29.9667 5.66667L30.9936 5.79183C31.0494 5.24226 30.7353 4.72886 30.2507 4.57694L29.9667 5.66667ZM15.5001 6.8L16.4468 6.34574L15.5001 3.97245L14.5534 6.34574L15.5001 6.8ZM15.2162 0.0436062L0.749509 4.57694L1.31727 6.75639L15.7839 2.22306L15.2162 0.0436062ZM0.00637555 5.79183L2.07305 26.1918L4.12706 25.9415L2.0604 5.5415L0.00637555 5.79183ZM2.63793 27.0803L15.0379 33.8803L15.9622 31.853L3.56218 25.053L2.63793 27.0803ZM15.9622 33.8803L28.3622 27.0803L27.4379 25.053L15.0379 31.853L15.9622 33.8803ZM28.927 26.1918L30.9936 5.79183L28.9398 5.5415L26.8731 25.9415L28.927 26.1918ZM30.2507 4.57694L15.7839 0.0436062L15.2162 2.22306L29.6828 6.75639L30.2507 4.57694ZM9.21342 25.3876L16.4468 7.25426L14.5534 6.34574L7.32002 24.4791L9.21342 25.3876ZM14.5534 7.25426L21.7866 25.3876L23.6801 24.4791L16.4468 6.34574L14.5534 7.25426ZM10.3334 20.4H20.6667V18.1333H10.3334V20.4Z" fill="black"/>
</g>
<defs>
<clipPath id="clip0_145_51">
<rect width="31" height="34" fill="white"/>
</clipPath>
</defs>
</svg>
