<svg width="30" height="34" viewBox="0 0 30 34" fill="none" xmlns="http://www.w3.org/2000/svg">
<g clip-path="url(#clip0_1_51)">
<path d="M19.5737 20.7141C19.5737 23.5304 16.9138 23.4653 16.6326 23.4653H11.2158V18.0406H16.6326C19.4826 18.0406 19.5737 20.1589 19.5737 20.7141ZM16.2154 15.8578C16.2603 15.8578 18.7895 15.9242 18.7895 13.4466C18.7895 12.416 18.5545 11.0646 16.2154 11.0646H11.2158V15.8578H16.2154ZM30 7.08355V26.9164C29.9961 28.2304 29.4681 29.4893 28.5312 30.4184C27.5943 31.3475 26.3247 31.8711 24.9998 31.875H5.00022C3.67528 31.8711 2.40571 31.3475 1.46882 30.4184C0.531942 29.4893 0.00388653 28.2304 0 26.9164V7.08355C0.00388653 5.76965 0.531942 4.51066 1.46882 3.58158C2.40571 2.65251 3.67528 2.12885 5.00022 2.125H24.9998C26.3247 2.12885 27.5943 2.65251 28.5312 3.58158C29.4681 4.51066 29.9961 5.76965 30 7.08355ZM22.6373 21.1079C22.6373 19.6755 22.192 17.2371 19.3527 16.6354V16.587C20.8868 15.9375 21.8531 14.711 21.8531 12.8921C21.8531 12.4273 21.9871 8.59031 16.6567 8.59031H8.15223V25.9443C16.7391 25.9443 17.5185 26.0558 19.1076 25.5651C20.0592 25.2716 22.6373 24.3711 22.6373 21.1079Z" fill="black"/>
</g>
<defs>
<clipPath id="clip0_1_51">
<rect width="30" height="34" fill="white"/>
</clipPath>
</defs>
</svg>
