<svg width="34" height="34" viewBox="0 0 34 34" fill="none" xmlns="http://www.w3.org/2000/svg">
<g clip-path="url(#clip0_1_47)">
<path d="M33.3582 15.4839L18.5109 0.641827C17.6587 -0.215611 16.27 -0.215611 15.4115 0.641827L12.3345 3.72414L16.2467 7.63095C17.1594 7.32708 18.2006 7.53108 18.9199 8.25676C19.6509 8.98776 19.8549 10.0386 19.5457 10.946L23.3091 14.7146C24.2218 14.3991 25.2737 14.6041 25.9983 15.3341C27.0225 16.352 27.0225 18.0009 25.9983 19.0199C24.9804 20.0378 23.3367 20.0378 22.3178 19.0199C21.5539 18.256 21.3605 17.1276 21.7419 16.1926L18.2165 12.6842V21.9311C18.4652 22.0533 18.7032 22.2191 18.9082 22.4241C19.9208 23.4484 19.9208 25.091 18.9082 26.11C17.8904 27.1278 16.235 27.1278 15.2118 26.11C14.1939 25.0921 14.1939 23.4484 15.2118 22.4241C15.4721 22.1691 15.76 21.9811 16.0692 21.8546V12.5195C15.7654 12.3867 15.471 12.204 15.2171 11.95C14.4479 11.1808 14.2598 10.0524 14.6582 9.1057L10.8173 5.24351L0.635361 15.4201C-0.211451 16.2723 -0.211451 17.661 0.635361 18.5195L15.4827 33.3615C16.3402 34.219 17.7235 34.219 18.582 33.3615L33.3572 18.5864C34.2146 17.7343 34.2146 16.3456 33.3572 15.4871L33.3582 15.4839Z" fill="black"/>
</g>
<defs>
<clipPath id="clip0_1_47">
<rect width="34" height="34" fill="white"/>
</clipPath>
</defs>
</svg>
