<svg width="37" height="37" viewBox="0 0 37 37" fill="none" xmlns="http://www.w3.org/2000/svg">
<g clip-path="url(#clip0_1_59)">
<path d="M18.5 1.54167C14.0499 1.49645 9.76398 3.21994 6.58406 6.33336C3.40415 9.44678 1.5905 13.6954 1.54169 18.1454C1.55883 21.6622 2.69014 25.0831 4.77312 27.9167C6.85609 30.7503 9.78355 32.8509 13.135 33.9167C13.9829 34.0708 14.2913 33.5621 14.2913 33.115C14.2913 32.6679 14.2913 31.6812 14.2913 30.2937C9.57377 31.2958 8.57169 28.0737 8.57169 28.0737C8.25764 27.0623 7.59 26.1976 6.69085 25.6379C5.14919 24.6204 6.81419 24.6358 6.81419 24.6358C7.34707 24.7071 7.8569 24.898 8.30546 25.1944C8.75401 25.4908 9.12964 25.8848 9.40419 26.3471C9.88261 27.1767 10.6676 27.7853 11.5903 28.0419C12.5129 28.2985 13.4995 28.1826 14.3375 27.7192C14.4237 26.8749 14.806 26.0885 15.4167 25.4992C11.655 25.0829 7.70835 23.6646 7.70835 17.2975C7.67471 15.6366 8.28839 14.0278 9.4196 12.8112C8.90442 11.3853 8.96525 9.81473 9.58919 8.43292C9.58919 8.43292 11.0229 7.98583 14.2142 10.1287C16.9921 9.3885 19.9154 9.3885 22.6934 10.1287C25.9309 7.98583 27.3183 8.43292 27.3183 8.43292C27.9423 9.81473 28.0031 11.3853 27.4879 12.8112C28.6454 14.0055 29.2924 15.6035 29.2917 17.2667C29.2917 23.6492 25.3142 25.0521 21.5834 25.4683C21.9919 25.865 22.3074 26.3472 22.5074 26.8803C22.7073 27.4134 22.7866 27.9842 22.7396 28.5517V33.0996C22.7396 33.0996 23.0479 34.0708 23.8959 33.9012C27.2378 32.8289 30.1554 30.7278 32.2319 27.8982C34.3085 25.0686 35.4377 21.6552 35.4584 18.1454C35.4095 13.6954 33.5959 9.44678 30.416 6.33336C27.2361 3.21994 22.9501 1.49645 18.5 1.54167Z" fill="#231F20"/>
</g>
<defs>
<clipPath id="clip0_1_59">
<rect width="37" height="37" fill="white"/>
</clipPath>
</defs>
</svg>
