<svg width="71" height="26" viewBox="0 0 71 26" fill="none" xmlns="http://www.w3.org/2000/svg">
<g clip-path="url(#clip0_1_62)">
<path fill-rule="evenodd" clip-rule="evenodd" d="M29.2362 19.5488H29.2047C29.2189 19.5488 29.2283 19.565 29.2425 19.5666H29.252L29.2362 19.5504V19.5488ZM29.2425 19.5666C29.0958 19.5683 28.7266 19.6479 28.3369 19.6479C27.1062 19.6479 26.6802 19.0629 26.6802 18.2991V13.2113H29.1889C29.3309 13.2113 29.4413 13.0813 29.4413 12.9025V10.14C29.4413 9.99375 29.3151 9.86375 29.1889 9.86375H26.6802V6.435C26.6802 6.305 26.6013 6.22375 26.4593 6.22375H23.0513C22.9093 6.22375 22.8304 6.305 22.8304 6.435V9.96125C22.8304 9.96125 21.1107 10.4 21.0002 10.4163C20.874 10.4488 20.7951 10.5625 20.7951 10.6925V12.9025C20.7951 13.0813 20.9213 13.2113 21.0633 13.2113H22.8147V18.5413C22.8147 22.5063 25.4969 22.9125 27.3271 22.9125C28.1633 22.9125 29.1731 22.6363 29.3309 22.555C29.4256 22.5225 29.4729 22.4088 29.4729 22.295V19.8575C29.4751 19.7884 29.453 19.7207 29.4107 19.667C29.3684 19.6133 29.3087 19.5771 29.2425 19.565V19.5666ZM66.6296 15.99C66.6296 13.0488 65.4778 12.6588 64.2629 12.7888C63.3162 12.8538 62.5589 13.3413 62.5589 13.3413V19.0613C62.5589 19.0613 63.332 19.6138 64.4838 19.6463C66.1089 19.695 66.6296 19.0938 66.6296 15.99ZM70.4636 15.73C70.4636 21.3038 68.7122 22.8963 65.6513 22.8963C63.0638 22.8963 61.6753 21.5475 61.6753 21.5475C61.6753 21.5475 61.6122 22.295 61.5333 22.3925C61.486 22.49 61.4071 22.5225 61.3124 22.5225H58.9773C58.8196 22.5225 58.6776 22.3925 58.6776 22.2463L58.7091 4.1925C58.7091 4.04625 58.8353 3.91625 58.9773 3.91625H62.338C62.48 3.91625 62.6062 4.04625 62.6062 4.1925V10.3188C62.6062 10.3188 63.9 9.4575 65.7933 9.4575L65.7775 9.425C67.6709 9.425 70.4636 10.1563 70.4636 15.73ZM56.7053 9.86375H53.392C53.2184 9.86375 53.1238 9.99375 53.1238 10.1725V19.0125C53.1238 19.0125 52.256 19.6463 51.0727 19.6463C49.8893 19.6463 49.5422 19.0938 49.5422 17.875V10.1563C49.5422 10.01 49.416 9.88 49.274 9.88H45.8976C45.7556 9.88 45.6293 10.01 45.6293 10.1563V18.46C45.6293 22.035 47.57 22.9288 50.2364 22.9288C52.4296 22.9288 54.2124 21.6775 54.2124 21.6775C54.2124 21.6775 54.2913 22.3113 54.3387 22.4088C54.3702 22.49 54.4807 22.555 54.5911 22.555H56.7053C56.8789 22.555 56.9736 22.425 56.9736 22.2788L57.0051 10.14C57.0051 9.99375 56.8789 9.86375 56.7053 9.86375ZM19.312 9.8475H15.9513C15.8093 9.8475 15.6831 9.99375 15.6831 10.1725V22.1C15.6831 22.425 15.8882 22.5388 16.1564 22.5388H19.1858C19.5013 22.5388 19.5802 22.3925 19.5802 22.1V10.1238C19.5802 9.9775 19.454 9.8475 19.312 9.8475ZM17.6553 4.355C16.4404 4.355 15.478 5.34625 15.478 6.5975C15.478 7.84875 16.4404 8.84 17.6553 8.84C18.8387 8.84 19.8011 7.84875 19.8011 6.5975C19.8011 5.34625 18.8387 4.355 17.6553 4.355ZM43.6729 3.94875H40.3438C40.2018 3.94875 40.0756 4.07875 40.0756 4.225V10.8713H34.8531V4.225C34.8531 4.07875 34.7269 3.94875 34.5849 3.94875H31.2242C31.0822 3.94875 30.956 4.07875 30.956 4.225V22.2788C30.956 22.425 31.098 22.555 31.2242 22.555H34.5849C34.7269 22.555 34.8531 22.425 34.8531 22.2788V14.56H40.0756L40.044 22.2788C40.044 22.425 40.1702 22.555 40.3122 22.555H43.6729C43.8149 22.555 43.9411 22.425 43.9411 22.2788V4.225C43.9411 4.07875 43.8149 3.94875 43.6729 3.94875ZM13.9002 11.9438V21.2713C13.9002 21.3363 13.8844 21.45 13.8056 21.4825C13.8056 21.4825 11.8333 22.9288 8.58311 22.9288C4.65444 22.9288 0 21.6613 0 13.3088C0 4.95625 4.07067 3.23375 8.04667 3.25C11.4862 3.25 12.8747 4.04625 13.0956 4.1925C13.1587 4.27375 13.1902 4.33875 13.1902 4.42L12.5276 7.3125C12.5276 7.45875 12.3856 7.6375 12.212 7.58875C11.644 7.41 10.792 7.0525 8.78822 7.0525C6.46889 7.0525 3.976 7.735 3.976 13.1138C3.976 18.4925 6.34267 19.1263 8.04667 19.1263C9.49822 19.1263 10.0189 18.9475 10.0189 18.9475V15.21H7.69956C7.526 15.21 7.39978 15.08 7.39978 14.9338V11.9438C7.39978 11.7975 7.526 11.6675 7.69956 11.6675H13.6004C13.774 11.6675 13.9002 11.7975 13.9002 11.9438Z" fill="black"/>
</g>
<defs>
<clipPath id="clip0_1_62">
<rect width="71" height="26" fill="white"/>
</clipPath>
</defs>
</svg>
