<svg width="30" height="34" viewBox="0 0 30 34" fill="none" xmlns="http://www.w3.org/2000/svg">
<g clip-path="url(#clip0_1_55)">
<path d="M14.8064 33.7344C14.3636 33.7344 13.9141 33.6148 13.5241 33.3891L9.44572 30.9652C8.83759 30.6199 9.13505 30.5004 9.33335 30.434C10.1464 30.1484 10.3116 30.0887 11.1775 29.5906C11.2701 29.5375 11.3891 29.5574 11.4816 29.6172L14.6148 31.4832C14.7271 31.5496 14.8858 31.5496 14.9915 31.4832L27.2002 24.4043C27.3126 24.3379 27.3853 24.2051 27.3853 24.0723V9.91445C27.3853 9.775 27.3126 9.64883 27.1936 9.57578L14.9915 2.50351C14.8792 2.43711 14.7271 2.43711 14.6148 2.50351L2.41926 9.58242C2.30028 9.64883 2.22757 9.78164 2.22757 9.92109V24.0723C2.22757 24.2051 2.30028 24.3379 2.41926 24.3977L5.76393 26.3367C7.58169 27.2465 8.69217 26.1773 8.69217 25.0949V11.123C8.69217 10.9238 8.85082 10.7711 9.04912 10.7711H10.5959C10.7876 10.7711 10.9528 10.9238 10.9528 11.123V25.1016C10.9528 27.532 9.6308 28.9266 7.33712 28.9266C6.62985 28.9266 6.07461 28.9266 4.52786 28.1562L1.32861 26.3035C0.535406 25.8453 0.0462646 24.9887 0.0462646 24.0656V9.91445C0.0462646 8.99804 0.535406 8.13476 1.32861 7.67656L13.5241 0.597655C14.2975 0.159373 15.322 0.159373 16.0888 0.597655L28.2975 7.6832C29.0907 8.1414 29.5798 8.99804 29.5798 9.92109V24.0723C29.5798 24.9887 29.0907 25.8453 28.2975 26.3102L16.0888 33.3891C15.6988 33.6148 15.2559 33.7344 14.8064 33.7344ZM24.662 19.7824C24.662 17.1328 22.8773 16.4289 19.1294 15.9309C15.3352 15.4262 14.9519 15.1672 14.9519 14.2773C14.9519 13.5402 15.2758 12.5574 18.085 12.5574C20.5902 12.5574 21.5156 13.102 21.899 14.802C21.9321 14.9613 22.0775 15.0809 22.2427 15.0809H23.8291C23.9283 15.0809 24.0208 15.041 24.0869 14.968C24.153 14.8949 24.1861 14.7953 24.1795 14.6957C23.9349 11.7672 21.9982 10.4059 18.085 10.4059C14.6015 10.4059 12.526 11.8801 12.526 14.357C12.526 17.0398 14.5949 17.7836 17.933 18.1156C21.9321 18.5074 22.2427 19.0984 22.2427 19.8887C22.2427 21.2566 21.1455 21.841 18.5742 21.841C15.3419 21.841 14.6346 21.0242 14.3966 19.4105C14.3702 19.2379 14.2248 19.1117 14.0463 19.1117H12.4665C12.2682 19.1117 12.1162 19.2711 12.1162 19.4637C12.1162 21.5289 13.2333 23.9926 18.5808 23.9926C22.441 23.9859 24.662 22.452 24.662 19.7824Z" fill="black"/>
</g>
<defs>
<clipPath id="clip0_1_55">
<rect width="29.6129" height="34" fill="white"/>
</clipPath>
</defs>
</svg>
