<svg width="34" height="34" viewBox="0 0 34 34" fill="none" xmlns="http://www.w3.org/2000/svg">
<g clip-path="url(#clip0_1_53)">
<path d="M24.2647 0C22.9436 0.00982663 21.6303 0.201945 20.3617 0.570917L20.2725 0.59925C19.4724 0.457849 18.6624 0.379691 17.85 0.3655C16.1812 0.337167 14.7475 0.742333 13.5915 1.41667C12.4525 1.02142 10.0895 0.34 7.599 0.476C5.865 0.570917 3.97233 1.09792 2.56983 2.57833C1.17158 4.05875 0.432081 6.3495 0.587914 9.46617C0.630414 10.3261 0.875497 11.7286 1.28208 13.5447C1.68866 15.3609 2.25958 17.4873 2.97216 19.4268C3.68475 21.3676 4.46533 23.1101 5.68508 24.2944C6.29425 24.888 7.13291 25.3867 8.12175 25.3456C8.81591 25.3173 9.4435 25.0127 9.98466 24.5636C10.2482 24.9107 10.5301 25.0623 10.7865 25.2025C11.1095 25.3796 11.424 25.5 11.7498 25.5793C12.3349 25.7252 13.3365 25.9207 14.5095 25.721C14.909 25.6544 15.3297 25.5241 15.7491 25.3385C15.7647 25.806 15.7831 26.2636 15.8015 26.7268C15.8596 28.1945 15.8964 29.5502 16.337 30.7388C16.4078 30.9329 16.6019 31.9331 17.3669 32.8157C18.1319 33.6997 19.6307 34.2508 21.3378 33.8853C22.542 33.6274 24.0734 33.1627 25.0906 31.7149C26.0964 30.2841 26.5497 28.2313 26.639 24.9022C26.6617 24.7222 26.6886 24.5693 26.7169 24.4262L26.9563 24.4474H26.9847C28.2696 24.5055 29.6636 24.3228 30.8281 23.7816C31.8594 23.3042 32.64 22.8211 33.2081 21.964C33.3497 21.7515 33.5056 21.4951 33.5481 21.0531C33.5906 20.6111 33.337 19.9198 32.9162 19.601C32.0733 18.9607 31.5435 19.2043 30.9754 19.3219C30.4158 19.4456 29.8455 19.5149 29.2726 19.5287C30.9102 16.7705 32.0847 13.8408 32.7547 11.2483C33.1514 9.71833 33.3738 8.30733 33.3922 7.07342C33.4107 5.8395 33.3101 4.74725 32.5706 3.80233C30.26 0.85 27.0116 0.034 24.4984 0.00566667C24.4205 0.00425 24.3426 0.00283333 24.2647 0.00425V0ZM24.1981 0.906667C26.5752 0.884 29.6126 1.55125 31.7928 4.33783C32.283 4.964 32.4289 5.87917 32.4119 7.00683C32.3935 8.13308 32.1852 9.48175 31.8042 10.9593C31.0647 13.821 29.6678 17.1572 27.7001 20.1507C27.7696 20.2 27.8447 20.2409 27.9239 20.2725C28.3347 20.4425 29.2712 20.5884 31.1397 20.2045C31.6101 20.1053 31.9543 20.0387 32.3113 20.3107C32.3981 20.3843 32.4666 20.4769 32.5116 20.5814C32.5566 20.6858 32.5768 20.7993 32.5706 20.9128C32.5515 21.0848 32.4881 21.2488 32.3864 21.3888C32.0252 21.9314 31.3126 22.4457 30.3988 22.8692C29.5899 23.2461 28.4297 23.443 27.4012 23.4543C26.8855 23.46 26.4095 23.4203 26.0057 23.2943L25.9802 23.2843C25.8244 24.786 25.466 27.7511 25.2322 29.104C25.0452 30.1948 24.718 31.0618 24.0932 31.7107C23.4699 32.3595 22.5873 32.7505 21.4002 33.0055C19.9297 33.3214 18.8572 32.9814 18.1659 32.3992C17.476 31.8183 17.1601 31.0477 16.9702 30.5759C16.8399 30.2501 16.7719 29.8279 16.7067 29.2641C16.6416 28.7002 16.5934 28.0103 16.5608 27.2326C16.5174 26.0417 16.5033 24.8499 16.5183 23.6583C15.9041 24.2209 15.1407 24.5947 14.3197 24.735C13.3436 24.9007 12.4723 24.7378 11.9524 24.6075C11.6961 24.5431 11.4487 24.4475 11.2157 24.3228C10.9749 24.1938 10.7454 24.0479 10.5924 23.7603C10.5025 23.5956 10.4739 23.4044 10.5117 23.2206C10.5595 23.0343 10.6682 22.8692 10.8205 22.7517C11.101 22.5236 11.4722 22.3961 12.0317 22.2799C13.0503 22.0702 13.4059 21.9272 13.6227 21.7558C13.8068 21.6084 14.0151 21.3109 14.3834 20.8746C14.3817 20.8552 14.3802 20.8359 14.3792 20.8165C13.72 20.798 13.0744 20.6242 12.495 20.3093C12.2825 20.5332 11.1973 21.6807 9.87416 23.273C9.31741 23.9388 8.70258 24.3213 8.05375 24.3482C7.40491 24.3766 6.81841 24.0493 6.31975 23.5662C5.32383 22.5987 4.52908 20.9341 3.83633 19.0527C3.145 17.1714 2.58258 15.0762 2.18308 13.2912C1.78216 11.5062 1.54558 10.0668 1.51158 9.37267C1.36283 6.42317 2.05275 4.43558 3.23566 3.18183C4.42 1.92808 6.0435 1.4535 7.62591 1.36283C10.4663 1.19992 13.1637 2.19017 13.7091 2.40267C14.7602 1.68867 16.1146 1.24383 17.8061 1.27217C18.6091 1.28343 19.4082 1.38706 20.1875 1.581L20.2158 1.56825C20.5589 1.44767 20.9084 1.34646 21.2627 1.26508C22.2249 1.04062 23.2087 0.921391 24.1967 0.9095L24.1981 0.906667ZM24.4134 1.85583H24.2066C23.3949 1.86715 22.5864 1.95826 21.7926 2.12783C23.5577 2.90983 24.8908 4.114 25.8301 5.31533C26.4825 6.14712 27.0218 7.06176 27.4337 8.03533C27.5896 8.40933 27.6944 8.72525 27.7539 8.97033C27.7837 9.09358 27.8035 9.197 27.8106 9.30467C27.8134 9.3585 27.8162 9.41375 27.7936 9.50867C27.7936 9.51292 27.7865 9.52283 27.7851 9.52708C27.8276 10.7681 27.5202 11.6096 27.4833 12.7939C27.455 13.6524 27.6746 14.6611 27.7284 15.7618C27.7794 16.796 27.6547 17.9322 26.9832 19.0471C27.0399 19.1151 27.0909 19.1831 27.1447 19.2511C28.9212 16.4532 30.2019 13.3577 30.8847 10.7185C31.2502 9.29758 31.4443 8.00983 31.4613 6.98983C31.4755 5.96983 31.2857 5.23033 31.0434 4.9215C29.1422 2.4905 26.5696 1.87283 24.4134 1.85583ZM17.6276 2.2185C15.9531 2.22275 14.7517 2.7285 13.8408 3.48642C12.9016 4.26983 12.2712 5.34225 11.8575 6.44017C11.3659 7.7435 11.1973 9.00433 11.1307 9.86L11.1492 9.84867C11.6549 9.56533 12.3193 9.282 13.0305 9.11767C13.7417 8.95475 14.5081 8.90375 15.2022 9.17292C15.8964 9.44208 16.4702 10.0753 16.6784 11.0358C17.6757 15.6499 16.3682 17.3655 15.8865 18.6603C15.7038 19.1297 15.5472 19.6088 15.4176 20.0954C15.4785 20.0812 15.5394 20.0643 15.6003 20.0586C15.9403 20.0303 16.2067 20.1436 16.3653 20.2116C16.8498 20.4128 17.1827 20.8349 17.3627 21.3166C17.4094 21.4427 17.4434 21.5787 17.4632 21.7189C17.4842 21.7765 17.4938 21.8376 17.4916 21.8988C17.4379 23.6637 17.444 25.4299 17.51 27.1943C17.5426 27.9565 17.5907 28.628 17.6517 29.1578C17.7126 29.6863 17.799 30.0886 17.8542 30.2246C18.0356 30.6779 18.3005 31.2715 18.7793 31.6752C19.2582 32.0776 19.9452 32.3467 21.2004 32.0776C22.2884 31.8438 22.9599 31.5194 23.409 31.0533C23.8567 30.5872 24.1244 29.9384 24.2958 28.9453C24.5522 27.4578 25.0679 23.1441 25.1302 22.3323C25.1019 21.7203 25.1926 21.25 25.3881 20.8916C25.5892 20.5232 25.9009 20.298 26.1701 20.1762C26.3047 20.1152 26.4307 20.0742 26.5342 20.0444C26.4247 19.8871 26.3099 19.7335 26.1899 19.584C25.8018 19.1133 25.484 18.5889 25.2464 18.0271C25.1326 17.7951 25.0112 17.5669 24.8823 17.3428C24.6939 17.0028 24.4559 16.5778 24.2066 16.1004C23.7079 15.1442 23.1653 13.9853 22.8834 12.8562C22.6029 11.7286 22.5618 10.5612 23.2815 9.73817C23.919 9.00717 25.0382 8.704 26.7183 8.874C26.6687 8.72525 26.639 8.602 26.5554 8.40367C26.1756 7.50959 25.6797 6.66938 25.0807 5.90467C23.6569 4.08425 21.352 2.27942 17.7905 2.22133H17.6276V2.2185ZM8.21808 2.29217C8.03816 2.29217 7.85825 2.29783 7.67975 2.30775C6.24891 2.38992 4.896 2.805 3.92841 3.83067C2.95941 4.85633 2.32191 6.53792 2.46075 9.32167C2.48766 9.84867 2.71716 11.3248 3.111 13.0787C3.50341 14.8325 4.06016 16.8966 4.72883 18.7198C5.39891 20.5431 6.21066 22.1297 6.98133 22.8806C7.3695 23.256 7.70666 23.4076 8.01266 23.3948C8.32008 23.3807 8.68983 23.2036 9.14175 22.661C9.96569 21.6671 10.8208 20.6995 11.7059 19.7597C11.0779 19.2144 10.5973 18.5198 10.3084 17.7399C10.0194 16.96 9.93151 16.12 10.0527 15.2972C10.1986 14.2502 10.2184 13.2713 10.2014 12.4978C10.1844 11.7442 10.1306 11.2427 10.1306 10.9296C10.1303 10.9206 10.1303 10.9116 10.1306 10.9027V10.8956L10.1292 10.8871C10.1283 9.25621 10.4121 7.63628 10.9678 6.103C11.3645 5.049 11.9552 3.978 12.8407 3.111C11.9708 2.82483 10.4267 2.3885 8.755 2.30633C8.5757 2.29713 8.39761 2.2924 8.21808 2.29217ZM25.7819 9.775C24.82 9.78775 24.2802 10.0357 23.9969 10.3601C23.596 10.8205 23.5577 11.628 23.8071 12.6225C24.055 13.6184 24.5678 14.7319 25.0495 15.657C25.2903 16.1202 25.5241 16.5367 25.7125 16.8753C25.9023 17.2153 26.0412 17.4562 26.1262 17.6616C26.2041 17.8514 26.2905 18.0186 26.3783 18.1744C26.7509 17.3882 26.8175 16.6161 26.7792 15.8114C26.7297 14.8155 26.4987 13.7969 26.5327 12.7656C26.571 11.56 26.809 10.7752 26.8302 9.843C26.4826 9.79797 26.1325 9.77525 25.7819 9.775ZM14.1171 9.93792C13.8232 9.94066 13.5306 9.97581 13.2444 10.0428C12.6741 10.1813 12.1248 10.3952 11.611 10.6788C11.4372 10.7721 11.2718 10.8801 11.1166 11.0018L11.0854 11.0302C11.0939 11.237 11.135 11.7385 11.152 12.4766C11.169 13.2841 11.1492 14.314 10.9933 15.4289C10.6547 17.8514 12.4128 19.8574 14.4783 19.8602C14.5987 19.363 14.7971 18.8587 14.9954 18.3274C15.5706 16.7776 16.7025 15.6471 15.7491 11.2356C15.5932 10.5131 15.2844 10.2212 14.8594 10.0569C14.6212 9.97267 14.3697 9.93235 14.1171 9.93792ZM25.3328 10.2269H25.4037C25.4972 10.2297 25.5836 10.2397 25.6587 10.2581C25.7352 10.2751 25.8003 10.3006 25.8542 10.336C25.8818 10.3531 25.9055 10.3758 25.9238 10.4026C25.9421 10.4295 25.9546 10.4599 25.9604 10.4918L25.959 10.5032C25.9618 10.5704 25.9445 10.637 25.9094 10.6944C25.8676 10.7722 25.8152 10.8437 25.7536 10.9069C25.6099 11.0652 25.4174 11.1709 25.2067 11.2072C25.0018 11.232 24.7949 11.18 24.6259 11.0613C24.5568 11.0148 24.4947 10.9585 24.4417 10.8942C24.3959 10.8436 24.365 10.7813 24.3525 10.7142C24.3495 10.6816 24.3533 10.6486 24.3635 10.6174C24.3738 10.5863 24.3902 10.5575 24.412 10.5329C24.4585 10.4801 24.5148 10.4368 24.5777 10.4054C24.7137 10.3289 24.8979 10.2723 25.1062 10.2411C25.1841 10.2297 25.2606 10.2241 25.3328 10.2227V10.2269ZM14.2545 10.4649C14.3296 10.4649 14.4089 10.472 14.4897 10.4833C14.7064 10.5131 14.8991 10.5712 15.0464 10.6562C15.1183 10.6937 15.1822 10.7447 15.2348 10.8063C15.2635 10.8391 15.285 10.8773 15.2982 10.9188C15.3114 10.9602 15.3158 11.0039 15.3113 11.0472C15.2977 11.1286 15.2608 11.2044 15.2051 11.2653C15.1471 11.3365 15.0788 11.3986 15.0025 11.4495C14.8183 11.58 14.5919 11.6371 14.3678 11.6096C14.1388 11.5719 13.9292 11.4581 13.7728 11.2866C13.7063 11.2175 13.65 11.1393 13.6057 11.0542C13.559 10.9794 13.5385 10.8912 13.5476 10.8035C13.5688 10.6505 13.6949 10.5712 13.8182 10.5273C13.9586 10.4824 14.1059 10.4632 14.2531 10.4706L14.2545 10.4649ZM27.0895 20.8675L27.0852 20.8689C26.877 20.944 26.7056 20.9752 26.5611 21.0389C26.4149 21.0952 26.2945 21.203 26.2225 21.3421C26.1332 21.505 26.0567 21.794 26.0794 22.2856C26.1435 22.3297 26.2143 22.3632 26.2891 22.3847C26.5313 22.4584 26.9379 22.5066 27.3912 22.4995C28.2951 22.4896 29.4072 22.2785 29.9979 22.0037C30.4825 21.7785 30.9324 21.4851 31.3338 21.1324C29.3604 21.5404 28.2441 21.4313 27.5598 21.1494C27.3899 21.0787 27.2314 20.9847 27.0895 20.8675ZM15.7122 21.0007H15.6825C15.6074 21.0077 15.4983 21.0332 15.2872 21.267C14.7942 21.8195 14.6214 22.1666 14.2148 22.491C13.8082 22.814 13.2798 22.9868 12.2244 23.2036C11.8901 23.2716 11.6988 23.3467 11.5713 23.4076C11.6124 23.4416 11.6082 23.4501 11.6705 23.4827C11.8249 23.5677 12.0232 23.6427 12.1833 23.6838C12.6367 23.7972 13.3818 23.9289 14.1596 23.7972C14.9373 23.664 15.7462 23.2914 16.4362 22.3238C16.5552 22.1567 16.5679 21.9102 16.4702 21.6453C16.371 21.3803 16.1542 21.1522 16.0012 21.0885C15.9102 21.0446 15.8126 21.0159 15.7122 21.0035V21.0007Z" fill="black"/>
</g>
<defs>
<clipPath id="clip0_1_53">
<rect width="34" height="34" fill="white"/>
</clipPath>
</defs>
</svg>
